<?xml version="1.0" encoding="UTF-8"?>
<svg version="1.1" xmlns="http://www.w3.org/2000/svg" width="231" height="233">
<path d="M0 0 C76.23 0 152.46 0 231 0 C231 76.89 231 153.78 231 233 C154.77 233 78.54 233 0 233 C0 156.11 0 79.22 0 0 Z " fill="#FBFBFB" transform="translate(0,0)"/>
<path d="M0 0 C0.66 0 1.32 0 2 0 C4.60018816 3.90028225 4.15085514 7.47434569 4 12 C7.3 12 10.6 12 14 12 C14.495 13.485 14.495 13.485 15 15 C11.70094538 19.94858192 8.79637585 22.16956552 3 24 C-0.4375 24.1875 -0.4375 24.1875 -3 24 C-3.66 26.31 -4.32 28.62 -5 31 C-3.07871219 30.43207216 -1.16308384 29.84497823 0.75 29.25 C1.81734375 28.92515625 2.8846875 28.6003125 3.984375 28.265625 C8.41813858 26.40482267 10.40129249 23.94634412 12.9375 19.9375 C15.15887542 16.77372289 16.44065456 15.45609586 20 14 C22.72145101 13.77194545 25.259512 13.86065315 28 14 C27.38545304 17.99455527 25.29353263 20.74466336 23 24 C23.804375 24.598125 24.60875 25.19625 25.4375 25.8125 C28 28 28 28 29 31 C28 32 28 32 25.93359375 32.09765625 C25.10988281 32.08605469 24.28617187 32.07445312 23.4375 32.0625 C22.61121094 32.05347656 21.78492187 32.04445312 20.93359375 32.03515625 C20.29550781 32.02355469 19.65742187 32.01195312 19 32 C19.061875 32.94875 19.12375 33.8975 19.1875 34.875 C19.0946875 36.421875 19.0946875 36.421875 19 38 C17.515 38.99 17.515 38.99 16 40 C12.85014682 36.43569245 10.4859916 33.59306496 9 29 C7.02 29.99 5.04 30.98 3 32 C3.5053125 32.38671875 4.010625 32.7734375 4.53125 33.171875 C5.1809375 33.69265625 5.830625 34.2134375 6.5 34.75 C7.47453125 35.51570313 7.47453125 35.51570313 8.46875 36.296875 C10 38 10 38 10 42 C3.375 41.25 3.375 41.25 0 39 C-0.66 41.31 -1.32 43.62 -2 46 C-3.32 46 -4.64 46 -6 46 C-8.29633824 42.55549263 -8.54016485 40.06187717 -9 36 C-9.3403125 36.44730469 -9.680625 36.89460938 -10.03125 37.35546875 C-16.62069724 45.57475268 -24.17364884 48.64641044 -34.0234375 51.7890625 C-37.25954158 52.78082269 -37.25954158 52.78082269 -39 56 C-32.73 56 -26.46 56 -20 56 C-19.98018066 57.40693115 -19.96036133 58.8138623 -19.93994141 60.26342773 C-19.86352016 65.51360111 -19.77486028 70.76351048 -19.68261719 76.01342773 C-19.64447777 78.27997604 -19.60959943 80.54658177 -19.578125 82.81323242 C-19.5321466 86.08272746 -19.47420734 89.35183225 -19.4140625 92.62109375 C-19.40251129 93.62458359 -19.39096008 94.62807343 -19.37905884 95.66197205 C-19.16161477 106.17119947 -16.44786944 115.1082969 -13 125 C-12.99635437 124.21961365 -12.99270874 123.43922729 -12.98895264 122.63519287 C-12.95107426 115.27808729 -12.89422428 107.92148819 -12.81609726 100.56470871 C-12.77659994 96.78254215 -12.74442289 93.00060917 -12.72900391 89.21826172 C-12.7138516 85.56752365 -12.67943304 81.91742766 -12.63169098 78.2669754 C-12.61686216 76.87479485 -12.60895812 75.48252263 -12.60811615 74.09026337 C-12.60574966 72.13916835 -12.57640445 70.18816264 -12.54589844 68.23730469 C-12.53257477 66.57184601 -12.53257477 66.57184601 -12.51898193 64.8727417 C-11.88189594 61.34625379 -10.84330593 60.12605237 -8 58 C-7.01 58 -6.02 58 -5 58 C-5.94933899 54.64566891 -6.89748835 51.30753495 -8 48 C-3.5969913 49.34536377 -1.528436 51.16052312 1 55 C1 55.99 1 56.98 1 58 C3.97 58 6.94 58 10 58 C9.01 53.05 9.01 53.05 8 48 C8.85722656 47.69707031 9.71445313 47.39414063 10.59765625 47.08203125 C18.14148359 44.3179457 24.4390031 41.9056095 29.9375 35.875 C31.37106051 31.99595391 31.12643609 28.52400688 30.91015625 24.42578125 C31 22 31 22 33 20 C36 19.75 36 19.75 39 20 C41 22 41 22 41.0546875 24.171875 C40.96574219 25.44804688 40.96574219 25.44804688 40.875 26.75 C40.80324924 31.74385285 41.54618854 34.20080739 45 38 C50.59867168 43.24299136 56.74638535 45.73324542 64 48 C63.01 52.95 63.01 52.95 62 58 C66.55855815 57.80959422 66.55855815 57.80959422 71 57 C72.97127988 54.71495163 72.97127988 54.71495163 74 52 C75.6875 50.1875 75.6875 50.1875 77 49 C78.485 49.495 78.485 49.495 80 50 C79.01 52.64 78.02 55.28 77 58 C78.98 58.495 78.98 58.495 81 59 C82.72297668 60.17402649 82.72297668 60.17402649 84 62 C84.39872742 64.79045105 84.39872742 64.79045105 84.43237305 68.21557617 C84.45216721 69.4966777 84.47196136 70.77777924 84.49235535 72.09770203 C84.49912514 73.49612278 84.50557201 74.89454512 84.51171875 76.29296875 C84.52856354 77.72359261 84.54671351 79.15420164 84.56611633 80.58479309 C84.61364482 84.34780242 84.64343541 88.11075169 84.66955566 91.8739624 C84.69934705 95.71492377 84.74588218 99.55567807 84.79101562 103.39648438 C84.877081 110.93088691 84.94441153 118.46530445 85 126 C91.43230523 111.02559342 91.89719092 97.01002104 91.875 80.875 C91.89316831 78.45180147 91.91398376 76.02862128 91.9375 73.60546875 C91.9887944 67.73674355 92.00446987 61.86893674 92 56 C98.27 56 104.54 56 111 56 C108.62661762 52.43992642 107.33809432 52.14889227 103.375 50.8125 C102.37210938 50.46832031 101.36921875 50.12414062 100.3359375 49.76953125 C99.56507813 49.51558594 98.79421875 49.26164062 98 49 C98 49.99 98 50.98 98 52 C96.68 52 95.36 52 94 52 C94.07734375 51.23816406 94.1546875 50.47632813 94.234375 49.69140625 C94.27997075 46.93938024 94.27997075 46.93938024 92.390625 45.33984375 C91.68421875 44.87707031 90.9778125 44.41429687 90.25 43.9375 C87.18362054 41.83344175 84.53605599 39.74739399 82 37 C81.82984375 37.55429687 81.6596875 38.10859375 81.484375 38.6796875 C79.48027444 44.67066895 79.48027444 44.67066895 76.8125 46.5 C76.214375 46.665 75.61625 46.83 75 47 C73.23537317 43.91190305 73 42.76687864 73 39 C72.113125 39.495 71.22625 39.99 70.3125 40.5 C67.12413762 41.94378674 65.41812454 42.30159922 62 42 C62.15481795 39.29068581 62.48172081 37.53415961 64.40234375 35.5546875 C65.89771708 34.32320358 67.4462924 33.1570163 69 32 C66.69 30.68 64.38 29.36 62 28 C61.938125 29.051875 61.87625 30.10375 61.8125 31.1875 C60.86591384 35.6291735 59.40843742 37.11593757 56 40 C54 38 54 38 53.875 34.375 C53.91625 33.26125 53.9575 32.1475 54 31 C52.515 31.495 52.515 31.495 51 32 C49.60560336 32.06665376 48.20830125 32.08538199 46.8125 32.0625 C45.554375 32.041875 44.29625 32.02125 43 32 C44.31224548 28.06326356 45.91910327 25.77280706 49 23 C48.6390625 22.51789062 48.278125 22.03578125 47.90625 21.5390625 C47.21015625 20.59160156 47.21015625 20.59160156 46.5 19.625 C45.80390625 18.68527344 45.80390625 18.68527344 45.09375 17.7265625 C44 16 44 16 44 14 C48.38798723 13.69738019 51.05580293 13.55680546 55.0625 15.4375 C57.68333932 17.72376409 59.40130924 19.78423084 61.4375 22.5625 C64.6382491 26.85842815 66.84116112 28.5669892 72 30 C74.79340157 30.25390222 74.79340157 30.25390222 77 30 C76.01 27.03 76.01 27.03 75 24 C74.030625 24.12375 73.06125 24.2475 72.0625 24.375 C66.80877472 24.40716566 62.89480953 21.26021735 59 18 C57 15 57 15 57 12 C60.63 12 64.26 12 68 12 C67.938125 10.948125 67.87625 9.89625 67.8125 8.8125 C68.0077786 4.84183507 68.70325068 3.15803031 71 0 C74 1 74 1 75.6875 3.25 C77.06511203 6.1364252 77.26985151 7.85173236 77 11 C77.680625 10.505 78.36125 10.01 79.0625 9.5 C82.59465009 7.69634889 85.08636991 7.76978647 89 8 C88.40921634 13.02166115 86.42323709 17.07444486 82.40234375 20.26953125 C80.96713934 21.22972711 79.48663535 22.12153366 78 23 C78.99 25.31 79.98 27.62 81 30 C83.64 29.67 86.28 29.34 89 29 C88.67515625 28.43539062 88.3503125 27.87078125 88.015625 27.2890625 C86.9049344 24.78573676 86.73179275 23.09698412 86.75 20.375 C86.74226563 19.21097656 86.74226563 19.21097656 86.734375 18.0234375 C87 16 87 16 89 14 C90.98 15.485 90.98 15.485 93 17 C94.1446875 15.7934375 94.1446875 15.7934375 95.3125 14.5625 C98 12 98 12 101 11 C101.05422947 12.4370809 101.09289723 13.87475462 101.125 15.3125 C101.14820313 16.11300781 101.17140625 16.91351563 101.1953125 17.73828125 C101 20 101 20 99 23 C99.825 23.45375 100.65 23.9075 101.5 24.375 C102.325 24.91125 103.15 25.4475 104 26 C104 26.66 104 27.32 104 28 C100.78817851 29.90608098 98.46117397 30.22266247 94.75 30.125 C93.85796875 30.10695313 92.9659375 30.08890625 92.046875 30.0703125 C91.03367188 30.03550781 91.03367188 30.03550781 90 30 C90 32.46278801 90.85452863 33.85224119 92 36 C89.525 36.495 89.525 36.495 87 37 C95.10267169 43.46489763 102.03917886 47.08025283 112.265625 49.09375 C115.61637901 50.20428562 117.00346836 51.0717536 119 54 C119 56.64 119 59.28 119 62 C112.07 62 105.14 62 98 62 C98.03480469 65.08601563 98.06960937 68.17203125 98.10546875 71.3515625 C98.12895807 74.38670937 98.14712109 77.42184558 98.16479492 80.45703125 C98.17975234 82.54399247 98.20012565 84.63092298 98.22631836 86.71777344 C98.49658856 108.82693537 96.03230677 127.33200824 80.27929688 143.98901367 C69.46232684 154.78558133 54.19107354 162.10266384 38.84545898 162.38037109 C20.71388251 162.34192341 5.26636698 156.75116827 -8 144 C-24.29928232 125.37978428 -26.48351293 107.37039594 -26.1875 83.6875 C-26.1724227 81.57878562 -26.1587397 79.47006079 -26.14648438 77.36132812 C-26.11630215 72.2404109 -26.05753901 67.12097163 -26 62 C-32.6 62 -39.2 62 -46 62 C-46 53 -46 53 -44.25 50.625 C-40.32226505 48.66113253 -36.48134717 47.87222079 -32.2109375 46.91796875 C-27.01554794 45.43266882 -22.62455368 42.7306164 -18 40 C-16.6730021 39.3208102 -15.34191747 38.6492147 -14 38 C-14 37.34 -14 36.68 -14 36 C-15.98 36 -17.96 36 -20 36 C-19.67 35.38125 -19.34 34.7625 -19 34.125 C-17.85806765 32.08981656 -17.85806765 32.08981656 -18 30 C-18.75925781 30.04640625 -19.51851562 30.0928125 -20.30078125 30.140625 C-21.29464844 30.17671875 -22.28851563 30.2128125 -23.3125 30.25 C-24.29863281 30.29640625 -25.28476562 30.3428125 -26.30078125 30.390625 C-29 30 -29 30 -30.85546875 27.984375 C-31.23316406 27.32953125 -31.61085938 26.6746875 -32 26 C-31.34 25.34 -30.68 24.68 -30 24 C-28.68 24 -27.36 24 -26 24 C-26.495 23.34 -26.99 22.68 -27.5 22 C-29.48316621 18.03366759 -29.22357461 15.39696738 -29 11 C-24.58110387 12.35021826 -22.65654657 14.26115668 -20 18 C-18.68 16.68 -17.36 15.36 -16 14 C-14.00174039 16.99738941 -13.72449602 17.63347508 -13.75 21 C-13.74226563 22.0209375 -13.74226563 22.0209375 -13.734375 23.0625 C-14 25 -14 25 -16 28 C-13.21885944 30.33391203 -13.21885944 30.33391203 -10.3125 29.625 C-9.1678125 29.315625 -9.1678125 29.315625 -8 29 C-7.34 27.02 -6.68 25.04 -6 23 C-6.54269531 22.55269531 -7.08539063 22.10539062 -7.64453125 21.64453125 C-15.13368122 15.31586217 -15.13368122 15.31586217 -17 11 C-17 9.68 -17 8.36 -17 7 C-12.43545749 7.54339792 -9.0271824 8.79463821 -5 11 C-4.9175 10.113125 -4.835 9.22625 -4.75 8.3125 C-3.90015652 4.55902463 -2.65972191 2.74031954 0 0 Z " fill="#C00D1A" transform="translate(80,18)"/>
<path d="M0 0 C0.66 0 1.32 0 2 0 C4.60018816 3.90028225 4.15085514 7.47434569 4 12 C7.3 12 10.6 12 14 12 C14.495 13.485 14.495 13.485 15 15 C11.70094538 19.94858192 8.79637585 22.16956552 3 24 C-0.4375 24.1875 -0.4375 24.1875 -3 24 C-3.66 26.31 -4.32 28.62 -5 31 C-3.07871219 30.43207216 -1.16308384 29.84497823 0.75 29.25 C1.81734375 28.92515625 2.8846875 28.6003125 3.984375 28.265625 C8.41813858 26.40482267 10.40129249 23.94634412 12.9375 19.9375 C15.15887542 16.77372289 16.44065456 15.45609586 20 14 C22.72145101 13.77194545 25.259512 13.86065315 28 14 C27.38545304 17.99455527 25.29353263 20.74466336 23 24 C23.804375 24.598125 24.60875 25.19625 25.4375 25.8125 C28 28 28 28 29 31 C28 32 28 32 25.93359375 32.09765625 C25.10988281 32.08605469 24.28617187 32.07445312 23.4375 32.0625 C22.61121094 32.05347656 21.78492187 32.04445312 20.93359375 32.03515625 C20.29550781 32.02355469 19.65742187 32.01195312 19 32 C19.061875 32.94875 19.12375 33.8975 19.1875 34.875 C19.0946875 36.421875 19.0946875 36.421875 19 38 C17.515 38.99 17.515 38.99 16 40 C12.85014682 36.43569245 10.4859916 33.59306496 9 29 C7.02 29.99 5.04 30.98 3 32 C3.5053125 32.38671875 4.010625 32.7734375 4.53125 33.171875 C5.1809375 33.69265625 5.830625 34.2134375 6.5 34.75 C7.47453125 35.51570313 7.47453125 35.51570313 8.46875 36.296875 C10 38 10 38 10 42 C3.375 41.25 3.375 41.25 0 39 C-0.66 41.31 -1.32 43.62 -2 46 C-3.32 46 -4.64 46 -6 46 C-8.29633824 42.55549263 -8.54016485 40.06187717 -9 36 C-9.3403125 36.44730469 -9.680625 36.89460938 -10.03125 37.35546875 C-16.62069724 45.57475268 -24.17364884 48.64641044 -34.0234375 51.7890625 C-37.25954158 52.78082269 -37.25954158 52.78082269 -39 56 C-32.73 56 -26.46 56 -20 56 C-19.98018066 57.40693115 -19.96036133 58.8138623 -19.93994141 60.26342773 C-19.86352016 65.51360111 -19.77486028 70.76351048 -19.68261719 76.01342773 C-19.64447777 78.27997604 -19.60959943 80.54658177 -19.578125 82.81323242 C-19.5321466 86.08272746 -19.47420734 89.35183225 -19.4140625 92.62109375 C-19.40251129 93.62458359 -19.39096008 94.62807343 -19.37905884 95.66197205 C-19.15691924 106.39813761 -16.47397186 114.57808443 -13 125 C-12.67 104.21 -12.34 83.42 -12 62 C-10.68 61.34 -9.36 60.68 -8 60 C-8 83.1 -8 106.2 -8 130 C4.28040496 130.20984526 4.28040496 130.20984526 16.5612793 130.38793945 C18.10728346 130.42024166 19.65326574 130.45361712 21.19921875 130.48828125 C21.9941272 130.49452515 22.78903564 130.50076904 23.60803223 130.50720215 C28.20255986 130.62604477 31.26050314 131.03988633 35 134 C35.33 134.66 35.66 135.32 36 136 C36.46696289 135.35256836 36.93392578 134.70513672 37.41503906 134.03808594 C41.22890859 131.03107962 44.6265516 131.39679786 49.359375 131.390625 C50.16133301 131.37499512 50.96329102 131.35936523 51.78955078 131.34326172 C54.776068 131.29078749 57.76310593 131.27241657 60.75 131.25 C67.4325 131.1675 74.115 131.085 81 131 C81 107.9 81 84.8 81 61 C81.99 61.33 82.98 61.66 84 62 C84.33 83.12 84.66 104.24 85 126 C90.44198364 110.33702217 90.44198364 110.33702217 91.8046875 94.8671875 C91.81839386 93.73846222 91.83210022 92.60973694 91.84622192 91.44680786 C91.88292863 87.92244403 91.87984737 84.39952456 91.875 80.875 C91.89316831 78.45180147 91.91398376 76.02862128 91.9375 73.60546875 C91.9887944 67.73674355 92.00446987 61.86893674 92 56 C98.27 56 104.54 56 111 56 C108.62661762 52.43992642 107.33809432 52.14889227 103.375 50.8125 C102.37210938 50.46832031 101.36921875 50.12414062 100.3359375 49.76953125 C99.56507813 49.51558594 98.79421875 49.26164062 98 49 C98 49.99 98 50.98 98 52 C96.68 52 95.36 52 94 52 C94.07734375 51.23816406 94.1546875 50.47632813 94.234375 49.69140625 C94.27997075 46.93938024 94.27997075 46.93938024 92.390625 45.33984375 C91.68421875 44.87707031 90.9778125 44.41429687 90.25 43.9375 C87.18362054 41.83344175 84.53605599 39.74739399 82 37 C81.82984375 37.55429687 81.6596875 38.10859375 81.484375 38.6796875 C79.48027444 44.67066895 79.48027444 44.67066895 76.8125 46.5 C76.214375 46.665 75.61625 46.83 75 47 C73.23537317 43.91190305 73 42.76687864 73 39 C72.113125 39.495 71.22625 39.99 70.3125 40.5 C67.12413762 41.94378674 65.41812454 42.30159922 62 42 C62.15481795 39.29068581 62.48172081 37.53415961 64.40234375 35.5546875 C65.89771708 34.32320358 67.4462924 33.1570163 69 32 C66.69 30.68 64.38 29.36 62 28 C61.938125 29.051875 61.87625 30.10375 61.8125 31.1875 C60.86591384 35.6291735 59.40843742 37.11593757 56 40 C54 38 54 38 53.875 34.375 C53.91625 33.26125 53.9575 32.1475 54 31 C52.515 31.495 52.515 31.495 51 32 C49.60560336 32.06665376 48.20830125 32.08538199 46.8125 32.0625 C45.554375 32.041875 44.29625 32.02125 43 32 C44.31224548 28.06326356 45.91910327 25.77280706 49 23 C48.6390625 22.51789062 48.278125 22.03578125 47.90625 21.5390625 C47.21015625 20.59160156 47.21015625 20.59160156 46.5 19.625 C45.80390625 18.68527344 45.80390625 18.68527344 45.09375 17.7265625 C44 16 44 16 44 14 C48.38798723 13.69738019 51.05580293 13.55680546 55.0625 15.4375 C57.68333932 17.72376409 59.40130924 19.78423084 61.4375 22.5625 C64.6382491 26.85842815 66.84116112 28.5669892 72 30 C74.79340157 30.25390222 74.79340157 30.25390222 77 30 C76.01 27.03 76.01 27.03 75 24 C74.030625 24.12375 73.06125 24.2475 72.0625 24.375 C66.80877472 24.40716566 62.89480953 21.26021735 59 18 C57 15 57 15 57 12 C60.63 12 64.26 12 68 12 C67.938125 10.948125 67.87625 9.89625 67.8125 8.8125 C68.0077786 4.84183507 68.70325068 3.15803031 71 0 C74 1 74 1 75.6875 3.25 C77.06511203 6.1364252 77.26985151 7.85173236 77 11 C77.680625 10.505 78.36125 10.01 79.0625 9.5 C82.59465009 7.69634889 85.08636991 7.76978647 89 8 C88.40921634 13.02166115 86.42323709 17.07444486 82.40234375 20.26953125 C80.96713934 21.22972711 79.48663535 22.12153366 78 23 C78.99 25.31 79.98 27.62 81 30 C83.64 29.67 86.28 29.34 89 29 C88.67515625 28.43539062 88.3503125 27.87078125 88.015625 27.2890625 C86.9049344 24.78573676 86.73179275 23.09698412 86.75 20.375 C86.74226563 19.21097656 86.74226563 19.21097656 86.734375 18.0234375 C87 16 87 16 89 14 C90.98 15.485 90.98 15.485 93 17 C94.1446875 15.7934375 94.1446875 15.7934375 95.3125 14.5625 C98 12 98 12 101 11 C101.05422947 12.4370809 101.09289723 13.87475462 101.125 15.3125 C101.14820313 16.11300781 101.17140625 16.91351563 101.1953125 17.73828125 C101 20 101 20 99 23 C99.825 23.45375 100.65 23.9075 101.5 24.375 C102.325 24.91125 103.15 25.4475 104 26 C104 26.66 104 27.32 104 28 C100.78817851 29.90608098 98.46117397 30.22266247 94.75 30.125 C93.85796875 30.10695313 92.9659375 30.08890625 92.046875 30.0703125 C91.03367188 30.03550781 91.03367188 30.03550781 90 30 C90 32.46278801 90.85452863 33.85224119 92 36 C89.525 36.495 89.525 36.495 87 37 C95.10267169 43.46489763 102.03917886 47.08025283 112.265625 49.09375 C115.61637901 50.20428562 117.00346836 51.0717536 119 54 C119 56.64 119 59.28 119 62 C112.07 62 105.14 62 98 62 C98.03480469 65.08601563 98.06960937 68.17203125 98.10546875 71.3515625 C98.12895807 74.38670937 98.14712109 77.42184558 98.16479492 80.45703125 C98.17975234 82.54399247 98.20012565 84.63092298 98.22631836 86.71777344 C98.49658856 108.82693537 96.03230677 127.33200824 80.27929688 143.98901367 C69.46232684 154.78558133 54.19107354 162.10266384 38.84545898 162.38037109 C20.71388251 162.34192341 5.26636698 156.75116827 -8 144 C-24.29928232 125.37978428 -26.48351293 107.37039594 -26.1875 83.6875 C-26.1724227 81.57878562 -26.1587397 79.47006079 -26.14648438 77.36132812 C-26.11630215 72.2404109 -26.05753901 67.12097163 -26 62 C-32.6 62 -39.2 62 -46 62 C-46 53 -46 53 -44.25 50.625 C-40.32226505 48.66113253 -36.48134717 47.87222079 -32.2109375 46.91796875 C-27.01554794 45.43266882 -22.62455368 42.7306164 -18 40 C-16.6730021 39.3208102 -15.34191747 38.6492147 -14 38 C-14 37.34 -14 36.68 -14 36 C-15.98 36 -17.96 36 -20 36 C-19.67 35.38125 -19.34 34.7625 -19 34.125 C-17.85806765 32.08981656 -17.85806765 32.08981656 -18 30 C-18.75925781 30.04640625 -19.51851562 30.0928125 -20.30078125 30.140625 C-21.29464844 30.17671875 -22.28851563 30.2128125 -23.3125 30.25 C-24.29863281 30.29640625 -25.28476562 30.3428125 -26.30078125 30.390625 C-29 30 -29 30 -30.85546875 27.984375 C-31.23316406 27.32953125 -31.61085938 26.6746875 -32 26 C-31.34 25.34 -30.68 24.68 -30 24 C-28.68 24 -27.36 24 -26 24 C-26.495 23.34 -26.99 22.68 -27.5 22 C-29.48316621 18.03366759 -29.22357461 15.39696738 -29 11 C-24.58110387 12.35021826 -22.65654657 14.26115668 -20 18 C-18.68 16.68 -17.36 15.36 -16 14 C-14.00174039 16.99738941 -13.72449602 17.63347508 -13.75 21 C-13.74226563 22.0209375 -13.74226563 22.0209375 -13.734375 23.0625 C-14 25 -14 25 -16 28 C-13.21885944 30.33391203 -13.21885944 30.33391203 -10.3125 29.625 C-9.1678125 29.315625 -9.1678125 29.315625 -8 29 C-7.34 27.02 -6.68 25.04 -6 23 C-6.54269531 22.55269531 -7.08539063 22.10539062 -7.64453125 21.64453125 C-15.13368122 15.31586217 -15.13368122 15.31586217 -17 11 C-17 9.68 -17 8.36 -17 7 C-12.43545749 7.54339792 -9.0271824 8.79463821 -5 11 C-4.9175 10.113125 -4.835 9.22625 -4.75 8.3125 C-3.90015652 4.55902463 -2.65972191 2.74031954 0 0 Z " fill="#0F664C" transform="translate(80,18)"/>
<path d="M0 0 C2.31 0.33 4.62 0.66 7 1 C6.34 4.3 5.68 7.6 5 11 C9.55855815 10.80959422 9.55855815 10.80959422 14 10 C15.97127988 7.71495163 15.97127988 7.71495163 17 5 C18.6875 3.1875 18.6875 3.1875 20 2 C20.99 2.33 21.98 2.66 23 3 C22.01 5.64 21.02 8.28 20 11 C20.99 11 21.98 11 23 11 C23 11.66 23 12.32 23 13 C22.34 13 21.68 13 21 13 C21 36.1 21 59.2 21 83 C2.875 83.375 2.875 83.375 -2.81298828 83.47802734 C-4.31544711 83.51326221 -5.81788999 83.54918663 -7.3203125 83.5859375 C-8.08851318 83.59729736 -8.85671387 83.60865723 -9.64819336 83.62036133 C-14.12679111 83.74007908 -17.7779531 84.32644873 -22 86 C-23.42597096 83.14805809 -23.10375668 80.75035311 -23.08178711 77.5625 C-23.07872055 76.90217773 -23.07565399 76.24185547 -23.07249451 75.56152344 C-23.0653358 74.12645258 -23.0559439 72.69139153 -23.04459953 71.25634766 C-23.02724661 68.9872981 -23.01692239 66.71831858 -23.00868225 64.44921875 C-22.98419217 57.99732837 -22.94858881 51.54553247 -22.90405273 45.09375 C-22.8773167 41.14925765 -22.86024357 37.20481985 -22.84918404 33.26025391 C-22.84296247 31.75469952 -22.83294257 30.24915599 -22.81910515 28.74365234 C-22.7999549 26.64153057 -22.79300236 24.53969705 -22.78881836 22.4375 C-22.78136093 21.23996094 -22.7739035 20.04242188 -22.76622009 18.80859375 C-22.70696262 15.86236071 -22.70696262 15.86236071 -25 14 C-27.89967757 13.69324768 -30.71783178 13.48826629 -33.625 13.375 C-34.42679687 13.33632812 -35.22859375 13.29765625 -36.0546875 13.2578125 C-38.03607556 13.16346069 -40.01800645 13.08063785 -42 13 C-42 12.67 -42 12.34 -42 12 C-39.08308475 11.94598305 -36.16717276 11.90631934 -33.25 11.875 C-32.425 11.85824219 -31.6 11.84148437 -30.75 11.82421875 C-29.95078125 11.81777344 -29.1515625 11.81132813 -28.328125 11.8046875 C-27.5949707 11.79421387 -26.86181641 11.78374023 -26.10644531 11.77294922 C-23.70103924 12.03222456 -22.08748506 12.80774075 -20 14 C-19.01 13.34 -18.02 12.68 -17 12 C-15.09887695 11.68115234 -15.09887695 11.68115234 -12.98828125 11.5859375 C-12.23095703 11.54726562 -11.47363281 11.50859375 -10.69335938 11.46875 C-9.90767578 11.4378125 -9.12199219 11.406875 -8.3125 11.375 C-7.51521484 11.33632812 -6.71792969 11.29765625 -5.89648438 11.2578125 C-3.93136525 11.16367506 -1.9657146 11.08075368 0 11 C0 7.37 0 3.74 0 0 Z " fill="#C20E1B" transform="translate(137,65)"/>
<path d="M0 0 C0.66 0 1.32 0 2 0 C4.60018816 3.90028225 4.15085514 7.47434569 4 12 C7.3 12 10.6 12 14 12 C14.495 13.485 14.495 13.485 15 15 C11.70094538 19.94858192 8.79637585 22.16956552 3 24 C-0.4375 24.1875 -0.4375 24.1875 -3 24 C-3.66 26.31 -4.32 28.62 -5 31 C-3.07871219 30.43207216 -1.16308384 29.84497823 0.75 29.25 C1.81734375 28.92515625 2.8846875 28.6003125 3.984375 28.265625 C8.41813858 26.40482267 10.40129249 23.94634412 12.9375 19.9375 C15.15887542 16.77372289 16.44065456 15.45609586 20 14 C22.72145101 13.77194545 25.259512 13.86065315 28 14 C27.38545304 17.99455527 25.29353263 20.74466336 23 24 C23.804375 24.598125 24.60875 25.19625 25.4375 25.8125 C28 28 28 28 29 31 C28 32 28 32 25.93359375 32.09765625 C25.10988281 32.08605469 24.28617187 32.07445312 23.4375 32.0625 C22.61121094 32.05347656 21.78492187 32.04445312 20.93359375 32.03515625 C20.29550781 32.02355469 19.65742187 32.01195312 19 32 C19.061875 32.94875 19.12375 33.8975 19.1875 34.875 C19.0946875 36.421875 19.0946875 36.421875 19 38 C17.515 38.99 17.515 38.99 16 40 C12.85014682 36.43569245 10.4859916 33.59306496 9 29 C7.02 29.99 5.04 30.98 3 32 C3.5053125 32.38671875 4.010625 32.7734375 4.53125 33.171875 C5.1809375 33.69265625 5.830625 34.2134375 6.5 34.75 C7.47453125 35.51570313 7.47453125 35.51570313 8.46875 36.296875 C10 38 10 38 10 42 C3.375 41.25 3.375 41.25 0 39 C-0.66 41.31 -1.32 43.62 -2 46 C-3.32 46 -4.64 46 -6 46 C-8.29633824 42.55549263 -8.54016485 40.06187717 -9 36 C-9.3403125 36.44730469 -9.680625 36.89460938 -10.03125 37.35546875 C-16.62069724 45.57475268 -24.17364884 48.64641044 -34.0234375 51.7890625 C-37.25954158 52.78082269 -37.25954158 52.78082269 -39 56 C-32.73 56 -26.46 56 -20 56 C-19.98018066 57.40693115 -19.96036133 58.8138623 -19.93994141 60.26342773 C-19.86352016 65.51360111 -19.77486028 70.76351048 -19.68261719 76.01342773 C-19.64447777 78.27997604 -19.60959943 80.54658177 -19.578125 82.81323242 C-19.5321466 86.08272746 -19.47420734 89.35183225 -19.4140625 92.62109375 C-19.40251129 93.62458359 -19.39096008 94.62807343 -19.37905884 95.66197205 C-19.15691924 106.39813761 -16.47397186 114.57808443 -13 125 C-12.67 104.21 -12.34 83.42 -12 62 C-10.68 61.34 -9.36 60.68 -8 60 C-8 83.1 -8 106.2 -8 130 C4.28040496 130.20984526 4.28040496 130.20984526 16.5612793 130.38793945 C18.10728346 130.42024166 19.65326574 130.45361712 21.19921875 130.48828125 C21.9941272 130.49452515 22.78903564 130.50076904 23.60803223 130.50720215 C28.20255986 130.62604477 31.26050314 131.03988633 35 134 C35.33 134.66 35.66 135.32 36 136 C36.46696289 135.35256836 36.93392578 134.70513672 37.41503906 134.03808594 C41.22890859 131.03107962 44.6265516 131.39679786 49.359375 131.390625 C50.16133301 131.37499512 50.96329102 131.35936523 51.78955078 131.34326172 C54.776068 131.29078749 57.76310593 131.27241657 60.75 131.25 C67.4325 131.1675 74.115 131.085 81 131 C81 107.9 81 84.8 81 61 C81.99 61.33 82.98 61.66 84 62 C84 86.09 84 110.18 84 135 C72.78 135 61.56 135 50 135 C49.34 138.63 48.68 142.26 48 146 C43.30187444 150.29828508 38.78851542 150.63110896 32.52734375 150.390625 C29.02860598 149.84986182 27.29577279 148.66605873 25 146 C22.90338638 142.85507957 22.58332772 139.69105643 22 136 C20.40345581 136.0628418 20.40345581 136.0628418 18.7746582 136.12695312 C14.81492205 136.27206412 10.85541881 136.36369789 6.89379883 136.43945312 C5.18148246 136.47961717 3.46943936 136.53416398 1.75805664 136.60351562 C-12.48885616 137.16627489 -12.48885616 137.16627489 -16.18554688 134.31323242 C-17.4998592 132.21812373 -18.26122181 130.3513063 -19 128 C-19.6981685 126.76503136 -20.40672124 125.53588155 -21.125 124.3125 C-27.22553971 111.3897358 -26.36157684 97.61474179 -26.1875 83.6875 C-26.1724227 81.57878562 -26.1587397 79.47006079 -26.14648438 77.36132812 C-26.11630215 72.2404109 -26.05753901 67.12097163 -26 62 C-32.6 62 -39.2 62 -46 62 C-46 53 -46 53 -44.25 50.625 C-40.32226505 48.66113253 -36.48134717 47.87222079 -32.2109375 46.91796875 C-27.01554794 45.43266882 -22.62455368 42.7306164 -18 40 C-16.6730021 39.3208102 -15.34191747 38.6492147 -14 38 C-14 37.34 -14 36.68 -14 36 C-15.98 36 -17.96 36 -20 36 C-19.67 35.38125 -19.34 34.7625 -19 34.125 C-17.85806765 32.08981656 -17.85806765 32.08981656 -18 30 C-18.75925781 30.04640625 -19.51851562 30.0928125 -20.30078125 30.140625 C-21.29464844 30.17671875 -22.28851563 30.2128125 -23.3125 30.25 C-24.29863281 30.29640625 -25.28476562 30.3428125 -26.30078125 30.390625 C-29 30 -29 30 -30.85546875 27.984375 C-31.23316406 27.32953125 -31.61085938 26.6746875 -32 26 C-31.34 25.34 -30.68 24.68 -30 24 C-28.68 24 -27.36 24 -26 24 C-26.495 23.34 -26.99 22.68 -27.5 22 C-29.48316621 18.03366759 -29.22357461 15.39696738 -29 11 C-24.58110387 12.35021826 -22.65654657 14.26115668 -20 18 C-18.68 16.68 -17.36 15.36 -16 14 C-14.00174039 16.99738941 -13.72449602 17.63347508 -13.75 21 C-13.74226563 22.0209375 -13.74226563 22.0209375 -13.734375 23.0625 C-14 25 -14 25 -16 28 C-13.21885944 30.33391203 -13.21885944 30.33391203 -10.3125 29.625 C-9.1678125 29.315625 -9.1678125 29.315625 -8 29 C-7.34 27.02 -6.68 25.04 -6 23 C-6.54269531 22.55269531 -7.08539063 22.10539062 -7.64453125 21.64453125 C-15.13368122 15.31586217 -15.13368122 15.31586217 -17 11 C-17 9.68 -17 8.36 -17 7 C-12.43545749 7.54339792 -9.0271824 8.79463821 -5 11 C-4.9175 10.113125 -4.835 9.22625 -4.75 8.3125 C-3.90015652 4.55902463 -2.65972191 2.74031954 0 0 Z " fill="#12664D" transform="translate(80,18)"/>
<path d="M0 0 C3 0.25 3 0.25 5 2.25 C5.0546875 4.421875 5.0546875 4.421875 4.875 7 C4.80324924 11.99385285 5.54618854 14.45080739 9 18.25 C13.30851418 22.0634934 17.33851778 24.83462944 23 26.25 C22.34 26.58 21.68 26.91 21 27.25 C21.495 28.24 21.495 28.24 22 29.25 C22.09472912 30.76845202 22.1298841 32.29110384 22.125 33.8125 C22.12886719 35.02099609 22.12886719 35.02099609 22.1328125 36.25390625 C22 38.25 22 38.25 21 39.25 C17.47739748 39.48811584 13.96170798 39.64561128 10.43359375 39.76757812 C6.21712759 39.96055974 2.85597066 40.3451505 -1 42.25 C-1.66 41.59 -2.32 40.93 -3 40.25 C-5.8679834 40.07473225 -8.64072722 40.01848189 -11.5078125 40.0546875 C-12.62530884 40.05770874 -12.62530884 40.05770874 -13.76538086 40.06079102 C-16.55198308 40.0712659 -19.33849764 40.09918848 -22.125 40.125 C-28.35375 40.16625 -34.5825 40.2075 -41 40.25 C-41 63.02 -41 85.79 -41 109.25 C-28.95817165 109.13133442 -28.95817165 109.13133442 -16.91674805 108.97973633 C-15.40674474 108.97097422 -13.89673435 108.96332963 -12.38671875 108.95703125 C-11.60317017 108.94168335 -10.81962158 108.92633545 -10.0123291 108.91052246 C-4.45615883 108.90783962 -4.45615883 108.90783962 -1.97583008 110.76831055 C-1.65380615 111.25726807 -1.33178223 111.74622559 -1 112.25 C0.21647217 111.76104248 0.21647217 111.76104248 1.45751953 111.26220703 C5.66798577 110.05913377 9.33146955 109.99677206 13.6796875 110.0546875 C14.40099854 110.05670166 15.12230957 110.05871582 15.86547852 110.06079102 C18.53538459 110.07117976 21.20519933 110.09910186 23.875 110.125 C32.846875 110.186875 32.846875 110.186875 42 110.25 C42 87.15 42 64.05 42 40.25 C42.99 39.92 43.98 39.59 45 39.25 C46.45478827 42.15957654 46.07412632 44.65416841 46.02172852 47.90283203 C46.01212097 48.58587402 46.00251343 49.26891602 45.99261475 49.97265625 C45.95958537 52.23447858 45.91926823 54.49611011 45.87890625 56.7578125 C45.85460897 58.32436446 45.83076522 59.89092351 45.80735779 61.45748901 C45.74447779 65.58396476 45.67542229 69.71031515 45.60510254 73.83666992 C45.53445441 78.04600305 45.46961639 82.25542516 45.40429688 86.46484375 C45.27523408 94.72666102 45.13965049 102.98835494 45 111.25 C41.70566354 112.89716823 38.03643157 112.40761162 34.4140625 112.42578125 C32.66144631 112.44897834 30.9088421 112.47309563 29.15625 112.49804688 C26.38891573 112.53317905 23.62202245 112.56251443 20.85449219 112.57592773 C18.18630417 112.59139618 15.51940923 112.63159621 12.8515625 112.67578125 C12.02540436 112.67387283 11.19924622 112.67196442 10.34805298 112.66999817 C5.50984028 112.75857926 5.50984028 112.75857926 1.44677734 115.28588867 C0.96934082 115.93404541 0.4919043 116.58220215 0 117.25 C-0.928125 116.2909375 -0.928125 116.2909375 -1.875 115.3125 C-5.62582132 111.67199695 -9.01914349 112.0564668 -14 111.96875 C-14.79148437 111.95034058 -15.58296875 111.93193115 -16.3984375 111.91296387 C-18.93221527 111.85414046 -21.46606041 111.80135067 -24 111.75 C-27.33347957 111.68244653 -30.66673921 111.60877953 -34 111.53125 C-34.77085938 111.51767456 -35.54171875 111.50409912 -36.3359375 111.4901123 C-41.77439638 111.36280181 -41.77439638 111.36280181 -44 110.25 C-44 86.49 -44 62.73 -44 38.25 C-43.01 38.25 -42.02 38.25 -41 38.25 C-41.94933899 34.89566891 -42.89748835 31.55753495 -44 28.25 C-39.5969913 29.59536377 -37.528436 31.41052312 -35 35.25 C-35 36.24 -35 37.23 -35 38.25 C-32.03 38.25 -29.06 38.25 -26 38.25 C-26.66 34.95 -27.32 31.65 -28 28.25 C-27.14277344 27.94707031 -26.28554687 27.64414063 -25.40234375 27.33203125 C-17.85851641 24.5679457 -11.5609969 22.1556095 -6.0625 16.125 C-4.62893949 12.24595391 -4.87356391 8.77400688 -5.08984375 4.67578125 C-4.94782872 0.84137549 -3.68906598 0.30742216 0 0 Z " fill="#666565" transform="translate(116,37.75)"/>
<path d="M0 0 C3 1 3 1 4.6875 3.25 C6.06511203 6.1364252 6.26985151 7.85173236 6 11 C7.0209375 10.2575 7.0209375 10.2575 8.0625 9.5 C11.59465009 7.69634889 14.08636991 7.76978647 18 8 C17.40921634 13.02166115 15.42323709 17.07444486 11.40234375 20.26953125 C9.96713934 21.22972711 8.48663535 22.12153366 7 23 C7.99 25.31 8.98 27.62 10 30 C13.96 29.505 13.96 29.505 18 29 C17.67515625 28.43539062 17.3503125 27.87078125 17.015625 27.2890625 C15.9049344 24.78573676 15.73179275 23.09698412 15.75 20.375 C15.74226563 19.21097656 15.74226563 19.21097656 15.734375 18.0234375 C16 16 16 16 18 14 C19.32 14.99 20.64 15.98 22 17 C22.763125 16.195625 23.52625 15.39125 24.3125 14.5625 C27 12 27 12 30 11 C30.05422947 12.4370809 30.09289723 13.87475462 30.125 15.3125 C30.14820313 16.11300781 30.17140625 16.91351563 30.1953125 17.73828125 C30 20 30 20 28 23 C28.825 23.45375 29.65 23.9075 30.5 24.375 C31.325 24.91125 32.15 25.4475 33 26 C33 26.66 33 27.32 33 28 C29.78817851 29.90608098 27.46117397 30.22266247 23.75 30.125 C22.85796875 30.10695313 21.9659375 30.08890625 21.046875 30.0703125 C20.37140625 30.04710938 19.6959375 30.02390625 19 30 C19 32.46278801 19.85452863 33.85224119 21 36 C18.525 36.495 18.525 36.495 16 37 C23.19302978 42.73911951 30.04753795 46.76188449 39 49 C39 49.99 39 50.98 39 52 C30.42857143 51.14285714 30.42857143 51.14285714 27 49 C27 49.99 27 50.98 27 52 C25.68 52 24.36 52 23 52 C23.07734375 51.23816406 23.1546875 50.47632813 23.234375 49.69140625 C23.27997075 46.93938024 23.27997075 46.93938024 21.390625 45.33984375 C20.68421875 44.87707031 19.9778125 44.41429687 19.25 43.9375 C16.18362054 41.83344175 13.53605599 39.74739399 11 37 C10.82984375 37.55429687 10.6596875 38.10859375 10.484375 38.6796875 C8.48027444 44.67066895 8.48027444 44.67066895 5.8125 46.5 C5.214375 46.665 4.61625 46.83 4 47 C2.23537317 43.91190305 2 42.76687864 2 39 C1.113125 39.495 0.22625 39.99 -0.6875 40.5 C-3.87586238 41.94378674 -5.58187546 42.30159922 -9 42 C-8.84518205 39.29068581 -8.51827919 37.53415961 -6.59765625 35.5546875 C-5.10228292 34.32320358 -3.5537076 33.1570163 -2 32 C-4.31 30.68 -6.62 29.36 -9 28 C-9.061875 29.051875 -9.12375 30.10375 -9.1875 31.1875 C-10.13408616 35.6291735 -11.59156258 37.11593757 -15 40 C-17 38 -17 38 -17.125 34.375 C-17.08375 33.26125 -17.0425 32.1475 -17 31 C-17.99 31.33 -18.98 31.66 -20 32 C-21.39439664 32.06665376 -22.79169875 32.08538199 -24.1875 32.0625 C-25.445625 32.041875 -26.70375 32.02125 -28 32 C-26.68775452 28.06326356 -25.08089673 25.77280706 -22 23 C-22.3609375 22.51789062 -22.721875 22.03578125 -23.09375 21.5390625 C-23.5578125 20.90742187 -24.021875 20.27578125 -24.5 19.625 C-25.19609375 18.68527344 -25.19609375 18.68527344 -25.90625 17.7265625 C-27 16 -27 16 -27 14 C-22.61201277 13.69738019 -19.94419707 13.55680546 -15.9375 15.4375 C-13.31666068 17.72376409 -11.59869076 19.78423084 -9.5625 22.5625 C-6.3617509 26.85842815 -4.15883888 28.5669892 1 30 C3.79340157 30.25390222 3.79340157 30.25390222 6 30 C5.34 28.02 4.68 26.04 4 24 C3.030625 24.12375 2.06125 24.2475 1.0625 24.375 C-4.19122528 24.40716566 -8.10519047 21.26021735 -12 18 C-14 15 -14 15 -14 12 C-10.37 12 -6.74 12 -3 12 C-3.061875 10.948125 -3.12375 9.89625 -3.1875 8.8125 C-2.9922214 4.84183507 -2.29674932 3.15803031 0 0 Z " fill="#11674D" transform="translate(151,18)"/>
<path d="M0 0 C0.33 0 0.66 0 1 0 C1 23.1 1 46.2 1 70 C13.28040496 70.20984526 13.28040496 70.20984526 25.5612793 70.38793945 C27.10728346 70.42024166 28.65326574 70.45361712 30.19921875 70.48828125 C30.9941272 70.49452515 31.78903564 70.50076904 32.60803223 70.50720215 C37.20255986 70.62604477 40.26050314 71.03988633 44 74 C44.33 74.66 44.66 75.32 45 76 C45.46696289 75.35256836 45.93392578 74.70513672 46.41503906 74.03808594 C50.22890859 71.03107962 53.6265516 71.39679786 58.359375 71.390625 C59.16133301 71.37499512 59.96329102 71.35936523 60.78955078 71.34326172 C63.776068 71.29078749 66.76310593 71.27241657 69.75 71.25 C76.4325 71.1675 83.115 71.085 90 71 C90 47.9 90 24.8 90 1 C90.99 1.33 91.98 1.66 93 2 C93 26.09 93 50.18 93 75 C81.78 75 70.56 75 59 75 C58.34 78.63 57.68 82.26 57 86 C52.30187444 90.29828508 47.78851542 90.63110896 41.52734375 90.390625 C38.02860598 89.84986182 36.29577279 88.66605873 34 86 C31.73868742 82.60803113 31.72420184 80.34521103 31 76 C19.78 75.67 8.56 75.34 -3 75 C-2.83065169 56.86190511 -2.83065169 56.86190511 -2.7421875 49.1484375 C-2.68180828 43.87894453 -2.6236108 38.60948907 -2.578125 33.33984375 C-2.54133189 29.09278412 -2.49498867 24.84592756 -2.44193649 20.59904099 C-2.42336065 18.97631761 -2.40826455 17.35355065 -2.39665604 15.73076248 C-2.37984775 13.46303628 -2.35082705 11.19577842 -2.31884766 8.92822266 C-2.30552399 7.63582672 -2.29220032 6.34343079 -2.2784729 5.01187134 C-2 2 -2 2 0 0 Z " fill="#080909" transform="translate(71,78)"/>
<path d="M0 0 C1.32 0 2.64 0 4 0 C4 1.32 4 2.64 4 4 C7.96 4 11.92 4 16 4 C16 15.55 16 27.1 16 39 C12.37 39 8.74 39 5 39 C5 40.32 5 41.64 5 43 C3.02 43 1.04 43 -1 43 C-1 41.68 -1 40.36 -1 39 C-4.63 39 -8.26 39 -12 39 C-12 27.45 -12 15.9 -12 4 C-8.04 4 -4.08 4 0 4 C0 2.68 0 1.36 0 0 Z " fill="#FBF2F2" transform="translate(136,89)"/>
<path d="M0 0 C9.24 0 18.48 0 28 0 C28.99 2.97 29.98 5.94 31 9 C32.8133497 12.2301177 32.8133497 12.2301177 36 14 C41.02290006 14.78986062 45.57072289 14.33179647 50.5 13.1875 C54.2844399 10.28279351 54.2844399 10.28279351 56 0 C65.57 0 75.14 0 85 0 C74.26860708 12.51995841 61.47680401 19.80895074 44.7734375 21.28515625 C27.80484337 21.75088139 14.08745323 15.3319719 1.73046875 3.91796875 C0 2 0 2 0 0 Z " fill="#F1F4F3" transform="translate(74,153)"/>
<path d="M0 0 C1.67542976 0.28604898 3.34385343 0.61781233 5 1 C6.13402062 5.53608247 6.13402062 5.53608247 5.44140625 7.93359375 C4.74685485 11.18507772 5.97182707 13.06215039 7.5 15.90625 C11.52004939 21.51756894 17.75254333 25.27674966 24 28 C24.02689216 29.47906892 24.04634621 30.95827483 24.0625 32.4375 C24.07410156 33.26121094 24.08570313 34.08492187 24.09765625 34.93359375 C24 37 24 37 23 38 C19.47739748 38.23811584 15.96170798 38.39561128 12.43359375 38.51757812 C8.96347275 38.67640059 6.42205182 38.8154997 3.203125 40.22265625 C2.47609375 40.47917969 1.7490625 40.73570313 1 41 C-0.33890097 40.00746689 -1.67120387 39.00602118 -3 38 C-5.81229514 37.63010978 -8.43230942 37.39961941 -11.25 37.3125 C-11.99507812 37.27833984 -12.74015625 37.24417969 -13.5078125 37.20898438 C-15.33802492 37.12685946 -17.16898669 37.06174347 -19 37 C-19.33 34.03 -19.66 31.06 -20 28 C-18.93072266 27.48953125 -18.93072266 27.48953125 -17.83984375 26.96875 C-11.30922909 23.66388982 -5.90474508 20.34367103 -2 14 C-1.05818903 10.35833094 -1 7.36676707 -1 3.625 C-1 1 -1 1 0 0 Z " fill="#F9F9F9" transform="translate(114,39)"/>
<path d="M0 0 C2.31 0.33 4.62 0.66 7 1 C6.34 4.3 5.68 7.6 5 11 C9.55855815 10.80959422 9.55855815 10.80959422 14 10 C15.97127988 7.71495163 15.97127988 7.71495163 17 5 C18.6875 3.1875 18.6875 3.1875 20 2 C20.99 2.33 21.98 2.66 23 3 C22.01 5.64 21.02 8.28 20 11 C20.99 11 21.98 11 23 11 C23 11.66 23 12.32 23 13 C22.34 13 21.68 13 21 13 C21 36.1 21 59.2 21 83 C2.875 83.375 2.875 83.375 -2.81298828 83.47802734 C-4.31544711 83.51326221 -5.81788999 83.54918663 -7.3203125 83.5859375 C-8.08851318 83.59729736 -8.85671387 83.60865723 -9.64819336 83.62036133 C-14.12679111 83.74007908 -17.7779531 84.32644873 -22 86 C-23.42597096 83.14805809 -23.10375668 80.75035311 -23.08178711 77.5625 C-23.07872055 76.90217773 -23.07565399 76.24185547 -23.07249451 75.56152344 C-23.0653358 74.12645258 -23.0559439 72.69139153 -23.04459953 71.25634766 C-23.02724661 68.9872981 -23.01692239 66.71831858 -23.00868225 64.44921875 C-22.98419217 57.99732837 -22.94858881 51.54553247 -22.90405273 45.09375 C-22.8773167 41.14925765 -22.86024357 37.20481985 -22.84918404 33.26025391 C-22.84296247 31.75469952 -22.83294257 30.24915599 -22.81910515 28.74365234 C-22.7999549 26.64153057 -22.79300236 24.53969705 -22.78881836 22.4375 C-22.78136093 21.23996094 -22.7739035 20.04242188 -22.76622009 18.80859375 C-22.70696262 15.86236071 -22.70696262 15.86236071 -25 14 C-27.89967757 13.69324768 -30.71783178 13.48826629 -33.625 13.375 C-34.42679687 13.33632812 -35.22859375 13.29765625 -36.0546875 13.2578125 C-38.03607556 13.16346069 -40.01800645 13.08063785 -42 13 C-42 12.67 -42 12.34 -42 12 C-39.08308475 11.94598305 -36.16717276 11.90631934 -33.25 11.875 C-32.425 11.85824219 -31.6 11.84148437 -30.75 11.82421875 C-29.95078125 11.81777344 -29.1515625 11.81132813 -28.328125 11.8046875 C-27.5949707 11.79421387 -26.86181641 11.78374023 -26.10644531 11.77294922 C-23.70103924 12.03222456 -22.08748506 12.80774075 -20 14 C-19.01 13.34 -18.02 12.68 -17 12 C-15.09887695 11.68115234 -15.09887695 11.68115234 -12.98828125 11.5859375 C-12.23095703 11.54726562 -11.47363281 11.50859375 -10.69335938 11.46875 C-9.90767578 11.4378125 -9.12199219 11.406875 -8.3125 11.375 C-7.51521484 11.33632812 -6.71792969 11.29765625 -5.89648438 11.2578125 C-3.93136525 11.16367506 -1.9657146 11.08075368 0 11 C0 7.37 0 3.74 0 0 Z M-20 16 C-20.58258733 19.04423576 -20.58258733 19.04423576 -20.45410156 22.58276367 C-20.45468567 23.24644455 -20.45526978 23.91012543 -20.45587158 24.59391785 C-20.45308663 26.78580181 -20.42197875 28.97632266 -20.390625 31.16796875 C-20.38316399 32.68825029 -20.37747039 34.20854146 -20.37347412 35.72883606 C-20.35820654 39.72889796 -20.31891582 43.72837824 -20.2746582 47.72821045 C-20.23372927 51.81026338 -20.21546824 55.89241037 -20.1953125 59.97460938 C-20.15242197 67.98333973 -20.08415786 75.9915975 -20 84 C-18.515 83.505 -18.515 83.505 -17 83 C-14.19859468 82.84608468 -11.41684578 82.74254485 -8.61328125 82.68359375 C-7.88894897 82.66494263 -7.1646167 82.6462915 -6.41833496 82.6270752 C-3.71651225 82.5588552 -1.01449181 82.4986569 1.6875 82.4375 C7.730625 82.293125 13.77375 82.14875 20 82 C20 59.23 20 36.46 20 13 C11.21375 12.9071875 11.21375 12.9071875 2.25 12.8125 C-0.51455566 12.77153198 -0.51455566 12.77153198 -3.33496094 12.72973633 C-4.80142563 12.72097165 -6.26789763 12.71332767 -7.734375 12.70703125 C-8.49121582 12.69168335 -9.24805664 12.67633545 -10.02783203 12.66052246 C-14.36991174 12.65836723 -16.96420232 12.80055191 -20 16 Z " fill="#3C0C0F" transform="translate(137,65)"/>
<path d="M0 0 C3.3 0 6.6 0 10 0 C10.02467917 5.23274388 10.04285003 10.46545403 10.05493164 15.69824219 C10.05996711 17.47917267 10.06679581 19.260099 10.07543945 21.04101562 C10.08753942 23.59766665 10.09323609 26.15426312 10.09765625 28.7109375 C10.10281754 29.50994476 10.10797882 30.30895203 10.11329651 31.13217163 C10.11387171 36.77225659 10.11387171 36.77225659 9 39 C7.02 39 5.04 39 3 39 C3 39.66 3 40.32 3 41 C2.01 41 1.02 41 0 41 C0 27.47 0 13.94 0 0 Z " fill="#FCF4F5" transform="translate(80,91)"/>
<path d="M0 0 C2 2 2 2 2.20254517 4.89797974 C2.18033905 6.13708099 2.15813293 7.37618225 2.13525391 8.65283203 C2.12579239 9.33587402 2.11633087 10.01891602 2.10658264 10.72265625 C2.0728531 12.98464434 2.02475319 15.24609005 1.9765625 17.5078125 C1.95040066 19.07435684 1.92513322 20.64091635 1.90072632 22.20748901 C1.83402333 26.33407769 1.75514213 30.46034797 1.67376709 34.58666992 C1.59289751 38.79593672 1.52348603 43.0053905 1.453125 47.21484375 C1.31332978 55.47678949 1.1606752 63.73843408 1 72 C-2.29433646 73.64716823 -5.96356843 73.15761162 -9.5859375 73.17578125 C-11.33855369 73.19897834 -13.0911579 73.22309563 -14.84375 73.24804688 C-17.61108427 73.28317905 -20.37797755 73.31251443 -23.14550781 73.32592773 C-25.81369583 73.34139618 -28.48059077 73.38159621 -31.1484375 73.42578125 C-31.97459564 73.42387283 -32.80075378 73.42196442 -33.65194702 73.41999817 C-38.49015972 73.50857926 -38.49015972 73.50857926 -42.55322266 76.03588867 C-43.03065918 76.68404541 -43.5080957 77.33220215 -44 78 C-44.928125 77.0409375 -44.928125 77.0409375 -45.875 76.0625 C-49.63455218 72.41352289 -53.07603992 72.79099711 -58.0703125 72.68359375 C-58.86654022 72.66281265 -59.66276794 72.64203156 -60.48312378 72.62062073 C-63.03032685 72.55515851 -65.57763425 72.49625585 -68.125 72.4375 C-69.85027127 72.3943116 -71.57553193 72.35069721 -73.30078125 72.30664062 C-77.53374685 72.19948055 -81.76681753 72.09820377 -86 72 C-86 71.67 -86 71.34 -86 71 C-80.84050889 70.95039685 -75.681158 70.91418441 -70.52148438 70.89013672 C-68.76787903 70.88010687 -67.0142903 70.86647971 -65.26074219 70.84912109 C-62.73368215 70.8247397 -60.2068441 70.8134866 -57.6796875 70.8046875 C-56.90132538 70.79436493 -56.12296326 70.78404236 -55.3210144 70.77340698 C-51.72302496 70.77267281 -49.15490874 70.94649526 -45.70751953 72.13720703 C-43.10560981 73.30370559 -43.10560981 73.30370559 -41.15527344 72.13720703 C-40.4440332 71.76192871 -39.73279297 71.38665039 -39 71 C-36.13812889 70.83124904 -33.37487114 70.76710478 -30.515625 70.8046875 C-29.7922998 70.80670166 -29.06897461 70.80871582 -28.32373047 70.81079102 C-25.63242209 70.82122244 -22.9412044 70.84914504 -20.25 70.875 C-14.2275 70.91625 -8.205 70.9575 -2 71 C-2 47.9 -2 24.8 -2 1 C-1.34 0.67 -0.68 0.34 0 0 Z " fill="#828383" transform="translate(160,77)"/>
<path d="M0 0 C0.33 0.33 0.66 0.66 1 1 C0.6875 4.5 0.6875 4.5 0 8 C-0.99 8.495 -0.99 8.495 -2 9 C-2 12.96 -2 16.92 -2 21 C-1.34 20.67 -0.68 20.34 0 20 C0 20.66 0 21.32 0 22 C3.60992379 21.34414811 3.60992379 21.34414811 7 20 C8.0409066 18.35857037 9.04504326 16.69287785 10 15 C11.65 15.33 13.3 15.66 15 16 C14.505 18.475 14.505 18.475 14 21 C13.46375 21.12375 12.9275 21.2475 12.375 21.375 C8.51009572 22.39208007 4.76672944 23.69004554 1.0625 25.1875 C-4.9227011 26.7754105 -10.24222033 24.72390041 -15.88671875 22.71875 C-17.90852322 22.03111225 -19.92198903 21.48784005 -22 21 C-22.38218767 19.34385343 -22.71395102 17.67542976 -23 16 C-22 15 -22 15 -19.4375 14.9375 C-18.633125 14.958125 -17.82875 14.97875 -17 15 C-17.185625 14.05125 -17.37125 13.1025 -17.5625 12.125 C-18 9 -18 9 -17 7 C-14.625 6.875 -14.625 6.875 -12 7 C-11.34 7.66 -10.68 8.32 -10 9 C-10.04125 9.9075 -10.0825 10.815 -10.125 11.75 C-9.96662333 15.86779334 -8.38448446 17.72133386 -6 21 C-6 21.66 -6 22.32 -6 23 C-5.34 23 -4.68 23 -4 23 C-4 18.38 -4 13.76 -4 9 C-5.32 8.34 -6.64 7.68 -8 7 C-8.9375 4.5625 -8.9375 4.5625 -9 2 C-6.7424563 -1.98390065 -3.99973386 -1.04340883 0 0 Z " fill="#544C4C" transform="translate(120,6)"/>
<path d="M0 0 C1.32 0 2.64 0 4 0 C4 1.98 4 3.96 4 6 C4.66 6 5.32 6 6 6 C6 7.98 6 9.96 6 12 C5.34 12 4.68 12 4 12 C4.01047363 12.86802246 4.02094727 13.73604492 4.03173828 14.63037109 C4.06579716 17.84699528 4.09088767 21.06352767 4.10986328 24.28027344 C4.11992877 25.67320781 4.13358234 27.06612102 4.15087891 28.45898438 C4.1751022 30.4595436 4.18540814 32.46025615 4.1953125 34.4609375 C4.20578613 35.66540527 4.21625977 36.86987305 4.22705078 38.11083984 C4 41 4 41 2 43 C-0.68839385 43.26991906 -3.29141936 43.08737357 -6 43 C-6.042721 41.33388095 -6.04063832 39.66617115 -6 38 C-5.505 37.505 -5.505 37.505 -5 37 C-3.35 37 -1.7 37 0 37 C0 28.75 0 20.5 0 12 C-1.65 12 -3.3 12 -5 12 C-5 10.02 -5 8.04 -5 6 C-3.35 6 -1.7 6 0 6 C0 4.02 0 2.04 0 0 Z " fill="#FAECED" transform="translate(103,89)"/>
<path d="M0 0 C0.66 0 1.32 0 2 0 C2.05422947 1.4370809 2.09289723 2.87475462 2.125 4.3125 C2.14820313 5.11300781 2.17140625 5.91351563 2.1953125 6.73828125 C2 9 2 9 0 12 C1.2375 12.680625 1.2375 12.680625 2.5 13.375 C3.325 13.91125 4.15 14.4475 5 15 C5 15.66 5 16.32 5 17 C1.35602463 19.33214424 -1.75325612 19.23164058 -6 19 C-6.99 18.67 -7.98 18.34 -9 18 C-9 17.34 -9 16.68 -9 16 C-9.66 16 -10.32 16 -11 16 C-12.17673198 13.64653604 -12.16623866 12.1193967 -12.1875 9.5 C-12.20167969 8.7059375 -12.21585938 7.911875 -12.23046875 7.09375 C-12 5 -12 5 -10 3 C-8.68 3.99 -7.36 4.98 -6 6 C-5.195625 5.195625 -4.39125 4.39125 -3.5625 3.5625 C-2.375 2.375 -1.1875 1.1875 0 0 Z " fill="#0E654B" transform="translate(179,29)"/>
<path d="M0 0 C7.92 0 15.84 0 24 0 C26 6 26 6 28 12 C17.62743768 11.40158294 8.44920102 6.84944686 0 1 C0 0.67 0 0.34 0 0 Z " fill="#15664D" transform="translate(78,153)"/>
<path d="M0 0 C7.92 0 15.84 0 24 0 C20.51013364 3.48986636 18.8613073 4.77669173 14.5625 6.625 C13.63566406 7.02976563 12.70882812 7.43453125 11.75390625 7.8515625 C10.39072266 8.42003906 10.39072266 8.42003906 9 9 C8.12859375 9.37640625 7.2571875 9.7528125 6.359375 10.140625 C3.4765481 11.19066129 1.04368114 11.14156656 -2 11 C-1.85892253 9.54119891 -1.71197585 8.08296449 -1.5625 6.625 C-1.48128906 5.81289062 -1.40007812 5.00078125 -1.31640625 4.1640625 C-1 2 -1 2 0 0 Z " fill="#15644B" transform="translate(130,153)"/>
<path d="M0 0 C0.99 0 1.98 0 3 0 C2.67 14.19 2.34 28.38 2 43 C0.68 43 -0.64 43 -2 43 C-2.21852538 38.1625906 -2.41507066 33.32494803 -2.59204102 28.48583984 C-2.65513945 26.84269852 -2.72404863 25.19976894 -2.79907227 23.55712891 C-2.90640649 21.18425017 -2.99222804 18.81137389 -3.07421875 16.4375 C-3.11157639 15.71320801 -3.14893402 14.98891602 -3.18742371 14.24267578 C-3.34354669 8.84418296 -2.13590089 4.96017212 0 0 Z " fill="#F7DFE1" transform="translate(94,89)"/>
<path d="M0 0 C0.66 0 1.32 0 2 0 C2 1.65 2 3.3 2 5 C3.65 5 5.3 5 7 5 C7 13.25 7 21.5 7 30 C6.34 29.01 5.68 28.02 5 27 C3.02463255 27.34786708 3.02463255 27.34786708 1 28 C0.67 28.66 0.34 29.32 0 30 C0 20.1 0 10.2 0 0 Z " fill="#CB2F3A" transform="translate(96,96)"/>
<path d="M0 0 C2.31 0 4.62 0 7 0 C7 7.59 7 15.18 7 23 C4.69 23 2.38 23 0 23 C0 15.41 0 7.82 0 0 Z " fill="#C8222D" transform="translate(129,99)"/>
<path d="M0 0 C2.31 0.33 4.62 0.66 7 1 C6.34 4.3 5.68 7.6 5 11 C9.55855815 10.80959422 9.55855815 10.80959422 14 10 C15.97127988 7.71495163 15.97127988 7.71495163 17 5 C18.6875 3.1875 18.6875 3.1875 20 2 C20.99 2.33 21.98 2.66 23 3 C22.01 5.64 21.02 8.28 20 11 C20.99 11 21.98 11 23 11 C23 11.66 23 12.32 23 13 C9.47 13.33 -4.06 13.66 -18 14 C-17.67 13.34 -17.34 12.68 -17 12 C-8.585 11.505 -8.585 11.505 0 11 C0 7.37 0 3.74 0 0 Z " fill="#151111" transform="translate(137,65)"/>
<path d="M0 0 C1.98 0 3.96 0 6 0 C6 7.59 6 15.18 6 23 C4.02 23 2.04 23 0 23 C0 15.41 0 7.82 0 0 Z " fill="#C10815" transform="translate(141,99)"/>
<path d="M0 0 C3 0.25 3 0.25 5 2.25 C5.0546875 4.421875 5.0546875 4.421875 4.875 7 C4.80324924 11.99385285 5.54618854 14.45080739 9 18.25 C13.30851418 22.0634934 17.33851778 24.83462944 23 26.25 C22.34 26.58 21.68 26.91 21 27.25 C20.67 27.91 20.34 28.57 20 29.25 C12.47167265 25.18827398 6.93948494 21.23434403 2.5625 13.8125 C1.74984425 10.11040159 2.43882517 6.99116555 3 3.25 C2.67 2.92 2.34 2.59 2 2.25 C1.67 11.82 1.34 21.39 1 31.25 C0.67 31.25 0.34 31.25 0 31.25 C0 21.35 0 11.45 0 1.25 C-2.51083114 2.50541557 -2.87125446 3.75063488 -4 6.25 C-4.625 4.375 -4.625 4.375 -5 2.25 C-3 0.25 -3 0.25 0 0 Z " fill="#3B3B3B" transform="translate(116,37.75)"/>
<path d="M0 0 C2.375 -0.125 2.375 -0.125 5 0 C5.66 0.66 6.32 1.32 7 2 C6.979375 2.94875 6.95875 3.8975 6.9375 4.875 C7.01014659 8.50732929 7.85459865 9.22885659 10 12 C10.1875 14.75 10.1875 14.75 10 17 C2.76980998 15.10355672 2.76980998 15.10355672 0.765625 12.23046875 C-0.99224635 7.8938333 -1.26305967 4.59294427 0 0 Z " fill="#DCDBDB" transform="translate(103,13)"/>
<path d="M0 0 C2.84383123 1.2748209 5.13754018 2.45137078 7 5 C6.6875 7.1875 6.6875 7.1875 6 9 C4.68 9.33 3.36 9.66 2 10 C2.33 10.66 2.66 11.32 3 12 C1.35 11.67 -0.3 11.34 -2 11 C-2 11.99 -2 12.98 -2 14 C-1.34 14 -0.68 14 0 14 C0 14.66 0 15.32 0 16 C-0.66 16 -1.32 16 -2 16 C-2.66 17.32 -3.32 18.64 -4 20 C-5.32 19.67 -6.64 19.34 -8 19 C-7.01 18.67 -6.02 18.34 -5 18 C-4.67 17.34 -4.34 16.68 -4 16 C-6.31 16.33 -8.62 16.66 -11 17 C-11.33 15.68 -11.66 14.36 -12 13 C-10.35 12.67 -8.7 12.34 -7 12 C-7.99 12.33 -8.98 12.66 -10 13 C-10 13.66 -10 14.32 -10 15 C-8.35 14.34 -6.7 13.68 -5 13 C-5.99 11.68 -6.98 10.36 -8 9 C-6.35 9.33 -4.7 9.66 -3 10 C-3.66 8.35 -4.32 6.7 -5 5 C-3.375 4.25 -3.375 4.25 -1 4 C2.25 5.9375 2.25 5.9375 5 8 C3.13433512 4.37206002 3.13433512 4.37206002 0 2 C0 1.34 0 0.68 0 0 Z " fill="#545556" transform="translate(171,156)"/>
<path d="M0 0 C1.32 0.33 2.64 0.66 4 1 C4.33 2.65 4.66 4.3 5 6 C8.3 6 11.6 6 15 6 C15.33 4.35 15.66 2.7 16 1 C17.32 0.67 18.64 0.34 20 0 C20.36768802 5.51532033 20.36768802 5.51532033 18.625 7.8125 C15.70134896 9.94901422 13.70666301 10.18623152 10.125 10.25 C8.82949219 10.28867188 8.82949219 10.28867188 7.5078125 10.328125 C4.4740601 9.93118543 3.16047497 9.14581111 1 7 C0.25 3.3125 0.25 3.3125 0 0 Z " fill="#D8D8D8" transform="translate(106,153)"/>
<path d="M0 0 C1.14857926 3.44573777 1.03468706 6.15624655 0.9375 9.74609375 C0.99950143 11.98202025 1.3758017 13.85919489 2 16 C-0.43562275 17.15015519 -2.41531519 17.98280339 -5.125 18.0625 C-8.25320833 16.28984862 -8.81792932 13.25069438 -10 10 C-8.906875 9.278125 -7.81375 8.55625 -6.6875 7.8125 C-3.54589128 5.58666387 -1.70635567 3.51308521 0 0 Z " fill="#E8F0ED" transform="translate(167,31)"/>
<path d="M0 0 C0.515625 0.70125 1.03125 1.4025 1.5625 2.125 C4.41939716 5.49467357 7.58871997 8.21156604 11 11 C9.25 16.75 9.25 16.75 7 19 C4 18.8125 4 18.8125 1 18 C0.34 17.01 -0.32 16.02 -1 15 C-0.34 14.34 0.32 13.68 1 13 C1.22325051 8.46057302 1.10720735 4.42882939 0 0 Z " fill="#EDF3F1" transform="translate(64,30)"/>
<path d="M0 0 C0.66 0.33 1.32 0.66 2 1 C-1.46554563 7.59298924 -4.54806638 10.95843448 -11.6328125 13.44140625 C-14 14 -14 14 -18 14 C-17.125 9.25 -17.125 9.25 -16 7 C-14.14453125 6.5078125 -14.14453125 6.5078125 -11.8125 6.125 C-7.0100566 5.16757508 -3.51658359 3.51658359 0 0 Z " fill="#EEF4F2" transform="translate(93,35)"/>
<path d="M0 0 C5.15949111 -0.04960315 10.318842 -0.08581559 15.47851562 -0.10986328 C17.23212097 -0.11989313 18.9857097 -0.13352029 20.73925781 -0.15087891 C23.26631785 -0.1752603 25.7931559 -0.1865134 28.3203125 -0.1953125 C29.09867462 -0.20563507 29.87703674 -0.21595764 30.6789856 -0.22659302 C34.27697504 -0.22732719 36.84509126 -0.05350474 40.29248047 1.13720703 C42.89439019 2.30370559 42.89439019 2.30370559 44.84472656 1.13720703 C45.5559668 0.76192871 46.26720703 0.38665039 47 0 C49.86278931 -0.1688051 52.62435954 -0.23274535 55.484375 -0.1953125 C56.29996887 -0.1924826 57.11556274 -0.18965271 57.95587158 -0.18673706 C60.55406528 -0.17556558 63.15191095 -0.15046675 65.75 -0.125 C67.51431793 -0.11496627 69.27864128 -0.10584111 71.04296875 -0.09765625 C75.36211273 -0.07563619 79.68099741 -0.04112733 84 0 C84 0.33 84 0.66 84 1 C82.94087402 1.00410889 81.88174805 1.00821777 80.79052734 1.01245117 C76.84277373 1.03430283 72.8960083 1.08865364 68.94873047 1.15258789 C67.24374904 1.1757156 65.53862581 1.19015133 63.83349609 1.19555664 C61.37508313 1.20488512 58.91888422 1.24595525 56.4609375 1.29296875 C55.70444916 1.2890361 54.94796082 1.28510345 54.16854858 1.28105164 C48.49820622 1.43568725 46.01629985 3.00869787 42 7 C41.071875 6.0409375 41.071875 6.0409375 40.125 5.0625 C36.36544782 1.41352289 32.92396008 1.79099711 27.9296875 1.68359375 C27.13345978 1.66281265 26.33723206 1.64203156 25.51687622 1.62062073 C22.96967315 1.55515851 20.42236575 1.49625585 17.875 1.4375 C16.14972873 1.3943116 14.42446807 1.35069721 12.69921875 1.30664062 C8.46625315 1.19948055 4.23318247 1.09820377 0 1 C0 0.67 0 0.34 0 0 Z " fill="#ACAEAE" transform="translate(74,148)"/>
<path d="M0 0 C4.4030087 1.34536377 6.471564 3.16052312 9 7 C9 7.99 9 8.98 9 10 C11.97 10 14.94 10 18 10 C18.33 8.68 18.66 7.36 19 6 C19 7.65 19 9.3 19 11 C19.99 11 20.98 11 22 11 C22 9.35 22 7.7 22 6 C22.33 7.32 22.66 8.64 23 10 C28.28 10 33.56 10 39 10 C39 10.33 39 10.66 39 11 C25.88750258 11.84054471 13.10269204 12.03989619 0 11 C0.99 10.67 1.98 10.34 3 10 C2.05066101 6.64566891 1.10251165 3.30753495 0 0 Z " fill="#4D766A" transform="translate(72,66)"/>
<path d="M0 0 C4.95 0 9.9 0 15 0 C17 7 17 7 17 8 C10.21028034 7.41467934 5.73351122 5.82234081 0 2 C0 1.34 0 0.68 0 0 Z " fill="#E3E8E6" transform="translate(87,153)"/>
<path d="M0 0 C4.95 0 9.9 0 15 0 C14 3 14 3 12.14453125 4.1328125 C7.76287165 5.99703618 3.78747283 7.50897715 -1 8 C-1.125 2.25 -1.125 2.25 0 0 Z " fill="#E8EAE9" transform="translate(130,153)"/>
<path d="M0 0 C6.75 0.75 6.75 0.75 9 3 C7.02 3.99 7.02 3.99 5 5 C5.99 5.33 6.98 5.66 8 6 C7.67 8.31 7.34 10.62 7 13 C2.73173127 13 2.06117568 12.62386487 -1 10 C-1.66 10.66 -2.32 11.32 -3 12 C-2.125 6.25 -2.125 6.25 -1 4 C0.32 4 1.64 4 3 4 C2.01 2.68 1.02 1.36 0 0 Z " fill="#EBEBEB" transform="translate(180,137)"/>
<path d="M0 0 C0.33 0.66 0.66 1.32 1 2 C1.66 2.33 2.32 2.66 3 3 C-11.34177362 13.39258958 -11.34177362 13.39258958 -18.41015625 12.796875 C-20.625 12.25 -20.625 12.25 -24 11 C-24 10.67 -24 10.34 -24 10 C-22.89205078 9.77957031 -22.89205078 9.77957031 -21.76171875 9.5546875 C-14.31352786 7.90794644 -5.58496288 5.58496288 0 0 Z " fill="#1B6C53" transform="translate(63,57)"/>
<path d="M0 0 C0.33 0.33 0.66 0.66 1 1 C0.71269945 3.33944736 0.38063221 5.6739143 0 8 C-5.41139241 9.32278481 -5.41139241 9.32278481 -7.9375 7.9375 C-9.52666796 5.03960549 -8.87523205 3.09697496 -8 0 C-5.11795733 -1.44102133 -3.08226581 -0.65580124 0 0 Z " fill="#C41520" transform="translate(120,6)"/>
<path d="M0 0 C0.66 0 1.32 0 2 0 C2 9.9 2 19.8 2 30 C2.99 30.33 3.98 30.66 5 31 C4.505 33.475 4.505 33.475 4 36 C2.68 36 1.36 36 0 36 C-0.38218767 34.34385343 -0.71395102 32.67542976 -1 31 C-0.67 30.67 -0.34 30.34 0 30 C0.09902278 28.61741773 0.13079611 27.22987235 0.1328125 25.84375 C0.13410156 24.98523438 0.13539062 24.12671875 0.13671875 23.2421875 C0.13285156 22.33726563 0.12898438 21.43234375 0.125 20.5 C0.12886719 19.62601563 0.13273437 18.75203125 0.13671875 17.8515625 C0.13024333 13.48712844 -0.03629723 9.24018743 -0.5703125 4.90625 C-0.71210937 3.6171875 -0.85390625 2.328125 -1 1 C-0.67 0.67 -0.34 0.34 0 0 Z " fill="#A5A5A5" transform="translate(114,39)"/>
<path d="M0 0 C5 1.66666667 10 3.33333333 15 5 C15 5.99 15 6.98 15 8 C6.42857143 7.14285714 6.42857143 7.14285714 3 5 C3 5.99 3 6.98 3 8 C1.68 8 0.36 8 -1 8 C-0.67 5.36 -0.34 2.72 0 0 Z " fill="#16684F" transform="translate(175,62)"/>
<path d="M0 0 C0.66 0 1.32 0 2 0 C2 6.27 2 12.54 2 19 C0.68 19 -0.64 19 -2 19 C-1.85982174 16.02046641 -1.71313658 13.04150696 -1.5625 10.0625 C-1.52318359 9.21236328 -1.48386719 8.36222656 -1.44335938 7.48632812 C-1.40146484 6.67744141 -1.35957031 5.86855469 -1.31640625 5.03515625 C-1.27974854 4.2862915 -1.24309082 3.53742676 -1.20532227 2.76586914 C-1 1 -1 1 0 0 Z " fill="#FCF3F4" transform="translate(99,104)"/>
<path d="M0 0 C0.99 0.33 1.98 0.66 3 1 C2.01 3.64 1.02 6.28 0 9 C0.99 9.33 1.98 9.66 3 10 C-2.94 10 -8.88 10 -15 10 C-15 9.67 -15 9.34 -15 9 C-14.38511719 8.98582031 -13.77023438 8.97164062 -13.13671875 8.95703125 C-10.66942534 8.81143339 -8.40086093 8.59486572 -6 8 C-4.02872012 5.71495163 -4.02872012 5.71495163 -3 3 C-1.3125 1.1875 -1.3125 1.1875 0 0 Z " fill="#387764" transform="translate(157,67)"/>
<path d="M0 0 C2.4375 0.1875 2.4375 0.1875 3.4375 1.1875 C3.625 3.625 3.625 3.625 3.4375 6.1875 C0.97471199 8.65028801 -1.26926982 9.18521255 -4.5625 10.1875 C-4.7578125 4.1328125 -4.7578125 4.1328125 -4.5625 2.1875 C-2.5625 0.1875 -2.5625 0.1875 0 0 Z " fill="#BC202A" transform="translate(126.5625,12.8125)"/>
<path d="M0 0 C-0.928125 0.61875 -0.928125 0.61875 -1.875 1.25 C-4.09473022 2.83001439 -4.09473022 2.83001439 -5 5.0625 C-6.28985714 7.5615982 -7.34741979 8.14181228 -10 9 C-12.25 8.625 -12.25 8.625 -14 8 C-13.4375 5.6875 -13.4375 5.6875 -12 3 C-7.92839622 0.77214133 -4.65202284 -0.42291117 0 0 Z " fill="#E9E4E4" transform="translate(133,20)"/>
<path d="M0 0 C3.875 0.875 3.875 0.875 5 2 C5.1875 4.9375 5.1875 4.9375 5 8 C3 10 3 10 0.375 10.125 C-0.40875 10.08375 -1.1925 10.0425 -2 10 C-1.54177532 6.53058454 -1.10868317 3.32604951 0 0 Z " fill="#4B4B4C" transform="translate(88,179)"/>
<path d="M0 0 C0.38218767 1.65614657 0.71395102 3.32457024 1 5 C0 6 0 6 -3.4375 6.125 C-7 6 -7 6 -9 5 C-9 3.68 -9 2.36 -9 1 C-6.04335481 -0.4783226 -3.25770263 -0.06032783 0 0 Z " fill="#828384" transform="translate(50,92)"/>
<path d="M0 0 C3.3 0 6.6 0 10 0 C9.125 4.875 9.125 4.875 8 6 C5.0625 6.1875 5.0625 6.1875 2 6 C1.34 5.34 0.68 4.68 0 4 C0 2.68 0 1.36 0 0 Z " fill="#434445" transform="translate(41,85)"/>
<path d="M0 0 C2.375 -0.125 2.375 -0.125 5 0 C5.66 0.66 6.32 1.32 7 2 C6.625 5.125 6.625 5.125 6 8 C3.625 8.125 3.625 8.125 1 8 C0.34 7.34 -0.32 6.68 -1 6 C-0.625 2.875 -0.625 2.875 0 0 Z " fill="#C21C27" transform="translate(103,13)"/>
<path d="M0 0 C3.3 0 6.6 0 10 0 C10 1.65 10 3.3 10 5 C5.545 5.495 5.545 5.495 1 6 C0.67 4.02 0.34 2.04 0 0 Z " fill="#747576" transform="translate(41,121)"/>
<path d="M0 0 C3 0.1875 3 0.1875 5 1.1875 C5 2.8375 5 4.4875 5 6.1875 C2.36 6.1875 -0.28 6.1875 -3 6.1875 C-3.66 4.8675 -4.32 3.5475 -5 2.1875 C-3 0.1875 -3 0.1875 0 0 Z " fill="#434445" transform="translate(185,128.8125)"/>
<path d="M0 0 C-0.33 3.96 -0.66 7.92 -1 12 C-1.99 12 -2.98 12 -4 12 C-4.99 8.37 -5.98 4.74 -7 1 C-5 0 -5 0 0 0 Z " fill="#151515" transform="translate(95,65)"/>
<path d="M0 0 C1.96259262 0.39611961 3.92007661 0.81761694 5.875 1.25 C6.96554688 1.48203125 8.05609375 1.7140625 9.1796875 1.953125 C12 3 12 3 13.3828125 5.109375 C13.58648437 5.73328125 13.79015625 6.3571875 14 7 C8.13190493 6.47606294 3.45126259 5.23891142 -2 3 C-1.34 2.67 -0.68 2.34 0 2 C0 1.34 0 0.68 0 0 Z " fill="#236E57" transform="translate(92,158)"/>
<path d="M0 0 C0.33 0 0.66 0 1 0 C1.83375798 11.80088222 2.0574223 23.20567437 1 35 C0.67 35 0.34 35 0 35 C-0.77806859 23.20926829 -1.1596298 11.77470256 0 0 Z " fill="#CA2A35" transform="translate(90,92)"/>
<path d="M0 0 C1.21236328 0.04060547 1.21236328 0.04060547 2.44921875 0.08203125 C3.06410156 0.11683594 3.67898437 0.15164062 4.3125 0.1875 C1.3223979 3.52261388 -1.58248574 5.40271119 -5.6875 7.1875 C-6.3475 7.1875 -7.0075 7.1875 -7.6875 7.1875 C-7.6875 3.1875 -7.6875 3.1875 -6.48046875 1.44921875 C-4.16996219 -0.17669327 -2.79641289 -0.12158317 0 0 Z " fill="#10634A" transform="translate(149.6875,152.8125)"/>
<path d="M0 0 C1.67542976 0.28604898 3.34385343 0.61781233 5 1 C4.67 2.65 4.34 4.3 4 6 C0.25 7.125 0.25 7.125 -2 6 C-1.125 1.125 -1.125 1.125 0 0 Z " fill="#C11622" transform="translate(130,21)"/>
<path d="M0 0 C0.99 0 1.98 0 3 0 C3 4.29 3 8.58 3 13 C2.01 13 1.02 13 0 13 C0 8.71 0 4.42 0 0 Z " fill="#CB313B" transform="translate(83,112)"/>
<path d="M0 0 C3.3 0 6.6 0 10 0 C10 0.66 10 1.32 10 2 C8.02 2.99 8.02 2.99 6 4 C7.32 4.66 8.64 5.32 10 6 C6.7 6 3.4 6 0 6 C0.99 5.01 1.98 4.02 3 3 C2.01 2.67 1.02 2.34 0 2 C0 1.34 0 0.68 0 0 Z " fill="#434344" transform="translate(41,99)"/>
<path d="M0 0 C1.65 0 3.3 0 5 0 C5 1.98 5 3.96 5 6 C3.125 6.625 3.125 6.625 1 7 C0.34 6.34 -0.32 5.68 -1 5 C-0.625 2.375 -0.625 2.375 0 0 Z " fill="#C51723" transform="translate(98,21)"/>
<path d="M0 0 C0.66 0 1.32 0 2 0 C2 1.65 2 3.3 2 5 C2.33 4.34 2.66 3.68 3 3 C3.66 3.33 4.32 3.66 5 4 C3.35 5.98 1.7 7.96 0 10 C-0.66 8.68 -1.32 7.36 -2 6 C-2.99 6 -3.98 6 -5 6 C-3.38405168 3.95880212 -1.7143618 1.95927063 0 0 Z " fill="#424243" transform="translate(78,173)"/>
<path d="M0 0 C0.99 0 1.98 0 3 0 C3 3.96 3 7.92 3 12 C2.01 12 1.02 12 0 12 C0 8.04 0 4.08 0 0 Z " fill="#CC363F" transform="translate(83,95)"/>
<path d="M0 0 C0.66 0 1.32 0 2 0 C2 1.32 2 2.64 2 4 C2.99 4 3.98 4 5 4 C5.33 3.01 5.66 2.02 6 1 C6 1.99 6 2.98 6 4 C6.99 4 7.98 4 9 4 C9.33 2.68 9.66 1.36 10 0 C10 1.98 10 3.96 10 6 C6.7 6 3.4 6 0 6 C0 4.02 0 2.04 0 0 Z " fill="#606062" transform="translate(181,85)"/>
<path d="M0 0 C1.98 0 3.96 0 6 0 C4.68 0.33 3.36 0.66 2 1 C2 1.99 2 2.98 2 4 C2.99 4 3.98 4 5 4 C5 4.66 5 5.32 5 6 C4.01 6 3.02 6 2 6 C2 6.99 2 7.98 2 9 C3.32 9.33 4.64 9.66 6 10 C4.02 10 2.04 10 0 10 C0 6.7 0 3.4 0 0 Z " fill="#585859" transform="translate(122,184)"/>
<path d="M0 0 C6.75 0.75 6.75 0.75 9 3 C7.02 3.99 7.02 3.99 5 5 C5.99 5.33 6.98 5.66 8 6 C8 6.66 8 7.32 8 8 C5.03 7.01 2.06 6.02 -1 5 C0.32 4.67 1.64 4.34 3 4 C2.01 2.68 1.02 1.36 0 0 Z " fill="#4B4B4C" transform="translate(180,137)"/>
<path d="M0 0 C0.66 0 1.32 0 2 0 C2 3.3 2 6.6 2 10 C1.34 10 0.68 10 0 10 C-0.66 9.01 -1.32 8.02 -2 7 C-2.99 7.495 -2.99 7.495 -4 8 C-2.87548273 5.0280615 -1.77706209 2.66559313 0 0 Z " fill="#525253" transform="translate(97,182)"/>
<path d="M0 0 C0.99 0.33 1.98 0.66 3 1 C2.01 3.64 1.02 6.28 0 9 C-0.66 9 -1.32 9 -2 9 C-2.33 7.68 -2.66 6.36 -3 5 C-3.99 5.33 -4.98 5.66 -6 6 C-6 5.34 -6 4.68 -6 4 C-3.1875 1.8125 -3.1875 1.8125 0 0 Z " fill="#545455" transform="translate(73,170)"/>
<path d="M0 0 C3.3 0 6.6 0 10 0 C10 1.65 10 3.3 10 5 C9.67 3.68 9.34 2.36 9 1 C8.01 1 7.02 1 6 1 C5.67 2.32 5.34 3.64 5 5 C5 4.01 5 3.02 5 2 C4.01 2 3.02 2 2 2 C2 3.32 2 4.64 2 6 C1.34 6 0.68 6 0 6 C0 4.02 0 2.04 0 0 Z " fill="#535355" transform="translate(42,128)"/>
<path d="M0 0 C0.33 0.66 0.66 1.32 1 2 C0.01 2.495 0.01 2.495 -1 3 C-0.01 4.485 -0.01 4.485 1 6 C-1.97 6 -4.94 6 -8 6 C-8 4.68 -8 3.36 -8 2 C-5.39902318 0.69951159 -2.86044938 0.43528578 0 0 Z " fill="#535354" transform="translate(190,99)"/>
<path d="M0 0 C0.66 0 1.32 0 2 0 C2 3.96 2 7.92 2 12 C-0.37555161 9.62444839 -0.36834858 8.69703006 -0.6875 5.4375 C-0.77386719 4.63183594 -0.86023438 3.82617188 -0.94921875 2.99609375 C-0.96597656 2.33738281 -0.98273438 1.67867187 -1 1 C-0.67 0.67 -0.34 0.34 0 0 Z " fill="#CDCECD" transform="translate(114,39)"/>
<path d="M0 0 C0.66 0 1.32 0 2 0 C2 2.97 2 5.94 2 9 C1.01 9.495 1.01 9.495 0 10 C-2.21538462 4.58461538 -2.21538462 4.58461538 -1.125 1.625 C-0.75375 1.08875 -0.3825 0.5525 0 0 Z " fill="#DBDBDB" transform="translate(113,184)"/>
<path d="M0 0 C2.125 0.375 2.125 0.375 4 1 C4 1.99 4 2.98 4 4 C3.01 3.34 2.02 2.68 1 2 C1.33 3.32 1.66 4.64 2 6 C-0.31 6.33 -2.62 6.66 -5 7 C-3.47793991 4.37098712 -2.15634036 2.15634036 0 0 Z " fill="#4D4D4E" transform="translate(67,164)"/>
<path d="M0 0 C2.49361571 1.20381448 4.68143083 2.45428722 7 4 C7.66 3.34 8.32 2.68 9 2 C8.67 3.65 8.34 5.3 8 7 C5.50638429 5.79618552 3.31856917 4.54571278 1 3 C0.34 3.66 -0.32 4.32 -1 5 C-0.67 3.35 -0.34 1.7 0 0 Z " fill="#535455" transform="translate(178,144)"/>
<path d="M0 0 C0 1.65 0 3.3 0 5 C-0.66 4.01 -1.32 3.02 -2 2 C-2.9075 2.53625 -3.815 3.0725 -4.75 3.625 C-8 5 -8 5 -10.375 4.1875 C-11.179375 3.5996875 -11.179375 3.5996875 -12 3 C-10.75336669 2.49166409 -9.50250613 1.99368855 -8.25 1.5 C-7.55390625 1.2215625 -6.8578125 0.943125 -6.140625 0.65625 C-4 0 -4 0 0 0 Z " fill="#347964" transform="translate(91,45)"/>
<path d="M0 0 C1.32 0.66 2.64 1.32 4 2 C3.34 2 2.68 2 2 2 C2.33 3.98 2.66 5.96 3 8 C1.68 8 0.36 8 -1 8 C-0.67 5.36 -0.34 2.72 0 0 Z " fill="#406157" transform="translate(175,62)"/>
<path d="M0 0 C1.98 0.66 3.96 1.32 6 2 C6 2.99 6 3.98 6 5 C4.02 5 2.04 5 0 5 C0 3.33333333 0 1.66666667 0 0 Z " fill="#DADBDB" transform="translate(184,114)"/>
<path d="M0 0 C1.98 0 3.96 0 6 0 C6 1.66666667 6 3.33333333 6 5 C4.02 4.34 2.04 3.68 0 3 C0 2.01 0 1.02 0 0 Z " fill="#E1E1E1" transform="translate(43,108)"/>
<path d="M0 0 C0.66 0 1.32 0 2 0 C2.33 1.65 2.66 3.3 3 5 C0.525 6.485 0.525 6.485 -2 8 C-2.66 7.34 -3.32 6.68 -4 6 C-3.01 5.67 -2.02 5.34 -1 5 C-0.67 3.35 -0.34 1.7 0 0 Z " fill="#DADADB" transform="translate(53,147)"/>
<path d="M0 0 C2.31 0 4.62 0 7 0 C7 0.99 7 1.98 7 3 C5.02 3 3.04 3 1 3 C0.67 2.01 0.34 1.02 0 0 Z " fill="#ECECEC" transform="translate(182,131)"/>
<path d="M0 0 C2.31 0 4.62 0 7 0 C6.67 0.99 6.34 1.98 6 3 C3.69 3 1.38 3 -1 3 C-0.67 2.01 -0.34 1.02 0 0 Z " fill="#E8E8E8" transform="translate(182,98)"/>
<path d="M0 0 C2.31 0 4.62 0 7 0 C6.67 0.99 6.34 1.98 6 3 C4.02 3 2.04 3 0 3 C0 2.01 0 1.02 0 0 Z " fill="#E4E4E4" transform="translate(43,86)"/>
<path d="M0 0 C-0.66 1.32 -1.32 2.64 -2 4 C-4.64 3.34 -7.28 2.68 -10 2 C-10 1.67 -10 1.34 -10 1 C-6.59437148 0.22157062 -3.49234244 -0.09978121 0 0 Z " fill="#27735B" transform="translate(49,66)"/>
<path d="M0 0 C-0.33 0.99 -0.66 1.98 -1 3 C-4.0625 4.1875 -4.0625 4.1875 -7 5 C-6.625 3.0625 -6.625 3.0625 -6 1 C-4 0 -4 0 0 0 Z " fill="#11654B" transform="translate(55,64)"/>
<path d="M0 0 C0.99 0.33 1.98 0.66 3 1 C2.67 2.65 2.34 4.3 2 6 C1.01 6.33 0.02 6.66 -1 7 C-0.67 4.69 -0.34 2.38 0 0 Z " fill="#ECECEC" transform="translate(89,181)"/>
<path d="M0 0 C0.66 0.33 1.32 0.66 2 1 C1.01 2.485 1.01 2.485 0 4 C0 4.99 0 5.98 0 7 C-1.32 6.67 -2.64 6.34 -4 6 C-4 2.99472353 -2.05564773 2.05564773 0 0 Z " fill="#CECECE" transform="translate(144,178)"/>
<path d="M0 0 C1.98 0.495 1.98 0.495 4 1 C3.01 1 2.02 1 1 1 C1 1.66 1 2.32 1 3 C2.98 3 4.96 3 7 3 C4.64561267 4.42944945 3.51967567 5.08661261 0.75 4.625 C0.1725 4.41875 -0.405 4.2125 -1 4 C-0.67 2.68 -0.34 1.36 0 0 Z " fill="#484949" transform="translate(160,168)"/>
<path d="M0 0 C2.0625 0.75 2.0625 0.75 4 2 C4.33 2.99 4.66 3.98 5 5 C1.89448334 5 0.64738916 4.4606285 -2 3 C-2 2.34 -2 1.68 -2 1 C-1.34 0.67 -0.68 0.34 0 0 Z " fill="#8B8C8C" transform="translate(168,160)"/>
<path d="M0 0 C0.33 1.32 0.66 2.64 1 4 C-0.65 4.33 -2.3 4.66 -4 5 C-4 4.34 -4 3.68 -4 3 C-4.66 2.67 -5.32 2.34 -6 2 C-4.02 1.34 -2.04 0.68 0 0 Z " fill="#1F6E55" transform="translate(141,157)"/>
<path d="M0 0 C1.485 0.99 1.485 0.99 3 2 C2.25 6.75 2.25 6.75 0 9 C0 6.03 0 3.06 0 0 Z " fill="#EBEBEB" transform="translate(117,39)"/>
<path d="M0 0 C1.5625 1.75 1.5625 1.75 3 4 C2.6875 6.25 2.6875 6.25 2 8 C1.01 7.67 0.02 7.34 -1 7 C-1 4.37886292 -0.68707555 2.49064888 0 0 Z " fill="#307A64" transform="translate(157,42)"/>
<path d="M0 0 C3.07536854 0.65900754 5.07735566 1.53867783 8 3 C5.03 3 2.06 3 -1 3 C-0.67 2.01 -0.34 1.02 0 0 Z " fill="#3A3A3B" transform="translate(182,125)"/>
<path d="M0 0 C0.66 0.33 1.32 0.66 2 1 C2 1.99 2 2.98 2 4 C0.68 4.33 -0.64 4.66 -2 5 C-2 4.34 -2 3.68 -2 3 C-2.66 2.67 -3.32 2.34 -4 2 C-2.125 0.9375 -2.125 0.9375 0 0 Z " fill="#25735B" transform="translate(57,61)"/>
<path d="M0 0 C1.65 1.32 3.3 2.64 5 4 C4.67 4.66 4.34 5.32 4 6 C1.4375 6.625 1.4375 6.625 -1 7 C-0.34 6.01 0.32 5.02 1 4 C0.69159401 1.84725052 0.69159401 1.84725052 0 0 Z " fill="#307963" transform="translate(62,45)"/>
</svg>
